<svg xmlns="http://www.w3.org/2000/svg" width="32" height="32" viewBox="0 0 32 32">
  <!-- Rounded square background with gradient matching bg-gradient-academic -->
  <defs>
    <linearGradient id="bgGradient" x1="0%" y1="0%" x2="100%" y2="100%">
      <stop offset="0%" style="stop-color:#818cf8;stop-opacity:1" />
      <stop offset="50%" style="stop-color:#6366f1;stop-opacity:1" />
      <stop offset="100%" style="stop-color:#4f46e5;stop-opacity:1" />
    </linearGradient>
  </defs>
  <rect width="32" height="32" rx="8" fill="url(#bgGradient)"/>
  
  <!-- Plane icon from Lucide (centered and scaled) -->
  <g transform="translate(16, 16)">
    <g transform="scale(0.6, 0.6)">
      <path d="M17.8 19.2 16 11l3.5-3.5C21 6 21 3.5 21 3c0-.4 0-.67-.3-.9-.23-.3-.5-.3-.9-.3-1 0-3.5 0-5 1.5L11 7 2.8 5.2c-.5-.1-.9.1-1.1.5-.3.5-.2 1 .2 1.4l6.1 3.7a2 2 0 0 1 .8 1.5v5.7c0 .2.1.5.2.7l2.4 3.7c.3.3.6.5 1 .5.4 0 .7-.2.9-.5l1.2-4.3 3.5 2.1c.4.3.9.2 1.3-.2.4-.4.5-1 .3-1.5z" 
            fill="none" 
            stroke="white" 
            stroke-width="2" 
            stroke-linecap="round" 
            stroke-linejoin="round"
            transform="translate(-12, -12)"/>
    </g>
  </g>
</svg>